<?xml version="1.0" encoding="utf-8"?>
<!-- Generator: Adobe Illustrator 16.0.0, SVG Export Plug-In . SVG Version: 6.00 Build 0)  -->
<!DOCTYPE svg PUBLIC "-//W3C//DTD SVG 1.1//EN" "http://www.w3.org/Graphics/SVG/1.1/DTD/svg11.dtd">
<svg version="1.1" id="Layer_1" xmlns="http://www.w3.org/2000/svg" xmlns:xlink="http://www.w3.org/1999/xlink" x="0px" y="0px"
	 width="84px" height="114px" viewBox="0 0 84 114" enable-background="new 0 0 84 114" xml:space="preserve">
<g>
	<g>
		<path fill="#1E1E2E" d="M41.933,112c-5.441-3.195-9.005-6.693-11.505-11.279l-0.011-0.02c-0.745-1.311-1.395-2.778-1.985-4.492
			c-1.032-2.904-1.842-6.332-2.471-10.484l0.037-0.006l-0.149-0.956l-0.695-0.289c-5.257-2.243-9.852-6.607-12.307-11.689
			l-0.014-0.031c-1.222-2.348-1.872-4.955-1.936-7.759l4.036-4.041c3.907,0.152,6.968,2.232,10.202,4.433l1.942,1.318l-0.206-2.338
			c-0.441-4.874-1.431-9.026-3.032-12.701c-1.954-4.486-4.799-8.299-8.697-11.658C7.07,33.136,2.943,27.246,2.151,21.465
			c-0.722-5.243,1.255-10.1,3.572-15.701L9.479,2l3.331,3.336c-3.23,6.141-4.418,11.672-3.631,16.886
			c0.77,5.111,3.403,9.706,8.052,14.055l0.191,0.175c0.306,0.275,0.625,0.568,0.973,0.896c0,0,0.526,0.479,0.783,0.712
			c3.997,3.634,7.77,7.068,10.559,12.131c3.094,5.618,4.563,12.48,4.611,21.568l-3.79,3.796c-0.887-0.51-1.897-1.19-2.954-1.9
			c-2.166-1.46-4.619-3.111-7.299-4.232l-2.119-0.885l0.622,2.215c0.505,1.805,1.258,3.477,2.239,4.963l0.135,0.202l0.206,0.126
			c2.099,1.31,4.443,2.104,7.158,2.423l4.159,4.165c0.055,0.426,0.111,0.903,0.176,1.437c0.592,4.914,1.583,13.136,5.574,19.169
			l0.13,0.196l0.198,0.128c0.892,0.567,1.82,1.022,2.841,1.391L42,105.087l0.375-0.134c1.016-0.366,1.973-0.833,2.847-1.389
			l0.198-0.13l0.13-0.194c3.987-6.029,4.976-14.249,5.566-19.162c0.064-0.536,0.122-1.016,0.179-1.445l4.158-4.165
			c2.768-0.321,5.053-1.098,7.158-2.423l0.204-0.128l0.132-0.2c0.981-1.486,1.736-3.156,2.241-4.961l0.62-2.215l-2.117,0.885
			c-2.681,1.121-5.133,2.771-7.297,4.23c-1.057,0.71-2.064,1.391-2.952,1.9l-3.791-3.796c0.048-9.088,1.517-15.952,4.611-21.57
			c2.788-5.062,6.564-8.495,10.559-12.131c0.288-0.263,0.579-0.526,0.868-0.791l0.01-0.011c0.328-0.305,0.606-0.562,0.878-0.807
			l0.1-0.089c4.688-4.357,7.349-8.964,8.135-14.085c0.803-5.229-0.382-10.777-3.624-16.94L74.52,2l3.758,3.765
			c2.317,5.601,4.292,10.458,3.572,15.701c-0.795,5.781-4.92,11.671-12.985,18.536c-3.905,3.365-6.749,7.177-8.703,11.662
			c-1.6,3.675-2.593,7.829-3.031,12.699l-0.212,2.344l1.942-1.32c3.237-2.2,6.298-4.282,10.206-4.433l4.035,4.041
			c-0.062,2.804-0.715,5.411-1.936,7.759l-0.014,0.031c-2.467,5.111-7.101,9.493-12.393,11.725l-0.577,0.243l-0.09,0.62
			c-0.639,4.31-1.464,7.853-2.522,10.827c-0.594,1.724-1.243,3.191-1.988,4.502l-0.01,0.02c-2.5,4.586-6.063,8.084-11.507,11.279
			L42,111.951L41.933,112z"/>
	</g>
</g>
</svg>
